# xmcd CD database file
#
# Track frame offsets:
#	183
#	17570
#	33840
#
# Disc length: 700 seconds
#
# Revision: 0
# Processed by: cddbd v1.4PL0 Copyright (c) Steve Scherf et al.
# Submitted via: CDex 1.50
#
DISCID=1502ba03
DTITLE=Bellamy Brothers - Suzanne Suzaaanne (MCD)
DYEAR=1992
DGENRE=Country
TTITLE0=Suzanne Suzanne
TTITLE1=Blue Highway
TTITLE2=Lay Ya Down
EXTD=YEAR: 1992
EXTT0=
EXTT1=
EXTT2=
PLAYORDER=
